THE FINAL 2010 DVDRip H264 PSP

Format                           : MPEG-4
Format profile                   : Base Media / Version 2
Codec ID                         : mp42
File size                        : 295 MiB
Duration                         : 1h 32mn
Overall bit rate                 : 445 Kbps
Encoded date                     : UTC 2010-03-19 16:45:40
Tagged date                      : UTC 2010-03-19 16:45:59
Writing application              : mp4creator 1.6.1d

Video
ID                               : 1
Format                           : AVC
Format/Info                      : Advanced Video Codec
Format profile                   : Baseline@L1.3
Format settings, CABAC           : No
Format settings, ReFrames        : 1 frame
Codec ID                         : avc1
Codec ID/Info                    : Advanced Video Coding
Duration                         : 1h 32mn
Bit rate mode                    : Variable
Bit rate                         : 381 Kbps
Width                            : 480 pixels
Height                           : 272 pixels
Display aspect ratio             : 16:9
Frame rate mode                  : Constant
Frame rate                       : 24.000 fps
Resolution                       : 24 bits
Colorimetry                      : 4:2:0
Scan type                        : Progressive
Bits/(Pixel*Frame)               : 0.122
Stream size                      : 253 MiB (86%)
Encoded date                     : UTC 2010-03-19 16:45:40
Tagged date                      : UTC 2010-03-19 16:45:56

Audio
ID                               : 2
Format                           : AAC
Format/Info                      : Advanced Audio Codec
Format version                   : Version 4
Format profile                   : LC
Format settings, SBR             : Yes
Format settings, PS              : No
Codec ID                         : 40
Duration                         : 1h 32mn
Bit rate mode                    : Variable
Bit rate                         : 62.7 Kbps
Maximum bit rate                 : 114 Kbps
Channel(s)                       : 2 channels
Channel positions                : L R
Sampling rate                    : 48.0 KHz
Resolution                       : 16 bits
Stream size                      : 41.6 MiB (14%)
Encoded date                     : UTC 2010-03-19 16:45:56
Tagged date                      : UTC 2010-03-19 16:45:59

A group of high school outcasts get revenge on the students that torment them. 
 
http://www.imdb.com/title/tt1390535/

NOTE To view H264 files on you,re PC i recomend VLC media player or Media player classic

To burn MP4 H264 files to disc i recmend convertx to dvd click link below thanks
 
http://thepiratebay.org/torrent/5018839/VSO.Convert-X.to.DVD.3.5.3%28vice%29

screen shots 
 
http://img225.imageshack.us/img225/5176/finalh264vicemp4thumbs2.jpg 